<svg width="60" height="46" viewBox="0 0 60 46" fill="none" xmlns="http://www.w3.org/2000/svg">
<g clip-path="url(#clip0_8_95)">
<path d="M36.4057 11.7373C33.0232 15.0859 29.6418 18.4346 26.2593 21.7832C24.297 23.7255 22.3348 25.6678 20.3714 27.609C17.291 30.6559 14.2151 33.7061 11.126 36.7442C9.98396 37.8674 8.75139 38.8848 7.38029 39.7236C6.5164 40.2519 5.61215 40.692 4.62173 40.9317C3.85274 41.118 3.08157 41.1615 2.30167 40.9753C1.00583 40.6659 0.0917659 39.4796 0.00995809 38.18C-0.0413081 37.3575 0.131034 36.5743 0.421178 35.8118C0.853123 34.6756 1.47377 33.6418 2.16096 32.6461C3.20919 31.1243 4.39594 29.7158 5.66015 28.3705C5.82376 28.1962 5.85649 28.0458 5.80958 27.8171C5.40491 25.8606 5.2762 23.8835 5.39727 21.8878C5.57834 18.8986 6.31788 16.0554 7.60063 13.3517C10.6079 7.01605 16.4261 2.38198 23.287 0.862349C25.3486 0.405914 27.4341 0.238155 29.5426 0.368876C35.0051 0.708752 39.7609 2.72404 43.8186 6.38314C45.1122 7.54983 46.2412 8.86358 47.2305 10.2972C47.3025 10.4017 47.3745 10.5063 47.4465 10.6109C47.4563 10.625 47.4705 10.6381 47.5097 10.6806C48.7128 9.51392 49.8963 8.33089 51.0896 7.15767C52.2884 5.98009 53.4817 4.79706 54.6783 3.6173C55.8738 2.43863 57.0703 1.26105 58.244 0.105255C58.8319 0.668446 59.4013 1.21421 59.9991 1.7872C56.2435 5.49097 52.5087 9.17404 48.7772 12.8549C49.0095 13.368 49.2451 13.8571 49.4568 14.3571C50.2781 16.2994 50.8137 18.3169 51.0689 20.4106C51.2609 21.9847 51.298 23.5621 51.1529 25.1384C50.6828 30.2561 48.7172 34.7268 45.2224 38.497C41.805 42.1833 37.5935 44.4808 32.6654 45.4688C31.29 45.7444 29.8971 45.886 28.4954 45.8936C27.349 45.9002 26.2037 45.8316 25.1009 45.4775C23.5281 44.9731 22.2998 44.0385 21.5352 42.5515C21.0825 41.6713 20.9418 40.7312 21.0411 39.7508C21.1851 38.3336 21.7468 37.0765 22.518 35.9011C23.2281 34.8194 24.0669 33.8379 24.981 32.9261C27.1221 30.7899 29.2786 28.6689 31.4307 26.5436C33.8151 24.1885 36.2028 21.8355 38.5894 19.4825C40.8986 17.2058 43.2077 14.9301 45.518 12.6545C45.5823 12.5913 45.6554 12.5358 45.7394 12.4639C45.3195 11.7787 44.8853 11.1643 44.4119 10.5771C41.2738 6.68271 37.2565 4.2099 32.36 3.17176C30.5897 2.79593 28.7943 2.67175 26.9912 2.79376C21.6748 3.15324 17.1514 5.25132 13.4635 9.09234C10.6821 11.99 8.93137 15.4378 8.15583 19.3757C7.79478 21.2113 7.70534 23.0654 7.85041 24.9303C8.08711 27.9805 9.01536 30.8062 10.5926 33.4228C10.6395 33.5002 10.6897 33.5743 10.7617 33.6865C12.7916 31.6919 14.7964 29.6973 16.8067 27.7092C18.8148 25.7234 20.8229 23.7353 22.83 21.7483C24.8446 19.7548 26.8582 17.7613 28.8728 15.7678C30.8798 13.782 32.8869 11.7972 34.8721 9.83418" fill="#FEFEFE"/>
</g>
<defs>
<clipPath id="clip0_8_95">
<rect width="60" height="45.7895" fill="white" transform="translate(0 0.105255)"/>
</clipPath>
</defs>
</svg>
