<?xml version="1.0" encoding="UTF-8"?><svg id="Layer_2" xmlns="http://www.w3.org/2000/svg" viewBox="0 0 255.18 80"><defs><style>.cls-1{fill:none;}.cls-2{fill:#f4f0ef;}</style></defs><g id="Layer_1-2"><rect class="cls-1" width="255.18" height="80"/><path class="cls-2" d="m56.3,29.48c-.42-.68-.85-1.29-1.32-1.88-3.12-3.88-7.11-6.34-11.98-7.37-1.76-.37-3.54-.5-5.34-.38-5.28.36-9.78,2.45-13.44,6.27-2.76,2.88-4.5,6.31-5.28,10.23-.36,1.83-.45,3.67-.3,5.53.24,3.03,1.16,5.85,2.73,8.45.05.08.1.15.17.26,2.02-1.99,4.01-3.97,6.01-5.95,2-1.98,3.99-3.95,5.99-5.93,2-1.98,4-3.97,6.01-5.95,1.99-1.98,3.99-3.95,5.96-5.91.58.57,1.14,1.12,1.73,1.68-.07.07-.13.14-.2.21-3.36,3.33-6.72,6.66-10.08,10-1.95,1.93-3.9,3.87-5.85,5.8-3.06,3.03-6.12,6.07-9.19,9.09-1.13,1.12-2.36,2.13-3.72,2.96-.86.53-1.76.96-2.74,1.2-.76.19-1.53.23-2.31.04-1.29-.31-2.2-1.49-2.28-2.78-.05-.82.12-1.6.41-2.36.43-1.13,1.05-2.16,1.73-3.15,1.04-1.51,2.22-2.92,3.48-4.25.16-.17.2-.32.15-.55-.4-1.95-.53-3.91-.41-5.9.18-2.97.91-5.8,2.19-8.49,2.99-6.31,8.77-10.92,15.59-12.43,2.05-.45,4.12-.62,6.22-.49,5.43.34,10.15,2.34,14.19,5.99,1.29,1.16,2.41,2.47,3.39,3.89.07.1.14.21.21.31.01.01.02.03.06.07,1.2-1.16,2.37-2.34,3.56-3.51,1.19-1.17,2.38-2.35,3.57-3.52,1.19-1.17,2.38-2.34,3.54-3.5.58.56,1.15,1.1,1.74,1.67-3.73,3.69-7.44,7.35-11.15,11.01.23.51.47,1,.68,1.49.82,1.93,1.35,3.94,1.6,6.02.19,1.57.23,3.14.08,4.71-.47,5.09-2.42,9.54-5.89,13.29-3.4,3.67-7.58,5.95-12.48,6.94-1.37.27-2.75.42-4.14.42-1.14,0-2.28-.06-3.37-.41-1.56-.5-2.78-1.43-3.54-2.91-.45-.88-.59-1.81-.49-2.79.14-1.41.7-2.66,1.47-3.83.71-1.08,1.54-2.05,2.45-2.96,2.13-2.13,4.27-4.24,6.41-6.35,2.37-2.34,4.74-4.68,7.11-7.03,2.29-2.27,4.59-4.53,6.89-6.79.06-.06.14-.12.22-.19Z"/><g><path class="cls-2" d="m75.42,53.58l4.84-23.36h10.77c1.37,0,2.53.15,3.49.45.96.3,1.75.72,2.35,1.27.61.54,1.07,1.21,1.38,2,.31.79.44,1.66.4,2.6-.06,1.75-.5,3.24-1.3,4.45-.8,1.22-1.91,2.14-3.33,2.77s-3.1.95-5.05.95h-9.13l.48-2.21h8.52c1.5,0,2.73-.21,3.72-.64.98-.43,1.73-1.07,2.24-1.92s.79-1.9.83-3.14c.04-1-.15-1.8-.58-2.4-.43-.6-1.04-1.05-1.83-1.35-.79-.3-1.77-.45-2.95-.45h-8.07l.64-.45-4.49,21.44h-2.95Z"/><path class="cls-2" d="m98.75,53.58l4.84-23.36h2.85l-4.84,23.36h-2.85Z"/><path class="cls-2" d="m113.68,53.9c-1.11,0-2.13-.18-3.06-.54-.93-.36-1.72-.88-2.37-1.55-.65-.67-1.15-1.47-1.49-2.4-.34-.93-.49-1.98-.45-3.16.08-1.9.55-3.59,1.39-5.08.84-1.48,1.98-2.64,3.4-3.46,1.42-.82,3.03-1.23,4.82-1.23,1.15,0,2.2.19,3.14.56.94.37,1.73.89,2.37,1.54.64.65,1.05,1.44,1.22,2.36h.13l1.09-4.17h2.59l-3.49,16.82h-2.72l.54-2.98h-.13c-.71.98-1.66,1.78-2.87,2.39s-2.58.91-4.12.91Zm.99-2.27c1.22,0,2.31-.22,3.28-.66.97-.44,1.78-1.06,2.44-1.86.65-.8,1.07-1.71,1.27-2.74l.16-.9c.26-1.3.21-2.46-.14-3.48s-.98-1.8-1.89-2.37c-.91-.57-2.06-.85-3.44-.85-1.32-.02-2.51.28-3.57.91s-1.91,1.5-2.55,2.61c-.64,1.11-.99,2.38-1.06,3.81-.02,1.13.19,2.11.62,2.93.44.82,1.08,1.46,1.92,1.91.84.45,1.83.67,2.96.67Z"/><path class="cls-2" d="m126.88,53.58l3.49-16.82h2.72l-.51,3.2h.22c.75-1.13,1.76-2,3.04-2.6,1.28-.6,2.61-.9,3.97-.9,1.22,0,2.28.18,3.17.54.9.36,1.62.9,2.16,1.6.54.7.9,1.58,1.06,2.61s.1,2.24-.18,3.6l-1.83,8.75h-2.82l1.76-8.46c.3-1.52.31-2.76.03-3.72s-.8-1.66-1.57-2.08c-.77-.43-1.74-.64-2.92-.64s-2.32.25-3.3.75c-.98.5-1.81,1.2-2.47,2.1-.66.9-1.13,1.96-1.41,3.17l-1.83,8.88h-2.82Z"/><path class="cls-2" d="m157.42,53.87c-1.65,0-3.12-.31-4.44-.95-1.31-.63-2.32-1.53-3.03-2.71s-1.04-2.54-.99-4.1c.06-1.86.55-3.52,1.47-5,.92-1.47,2.14-2.62,3.67-3.43,1.53-.81,3.27-1.22,5.24-1.22s3.6.38,4.92,1.15c1.31.77,2.25,1.84,2.82,3.2.57,1.37.65,2.99.24,4.87h-15.44c-.15,1.17,0,2.22.45,3.14.45.92,1.14,1.63,2.07,2.15.93.51,2.04.77,3.35.77,1.52,0,2.84-.3,3.97-.91,1.13-.61,1.91-1.42,2.34-2.42h2.76c-.32,1.09-.91,2.05-1.78,2.88-.87.83-1.94,1.47-3.24,1.92s-2.75.66-4.37.64Zm-5.35-9.71l-.35-.29h13.33l-.29.32c.17-1.13.05-2.13-.37-2.98-.42-.85-1.06-1.51-1.94-1.97-.88-.46-1.96-.69-3.24-.69s-2.36.24-3.35.71-1.82,1.12-2.47,1.94c-.65.82-1.09,1.81-1.33,2.96Z"/><path class="cls-2" d="m175.01,53.58c-.73,0-1.38-.12-1.97-.35-.59-.23-1.01-.62-1.27-1.17-.26-.54-.29-1.28-.1-2.2l2.27-10.89h-3.49l.45-2.21h3.49l1.03-4.9,2.92-.58-1.19,5.48h4.49l-.45,2.21h-4.49l-2.15,10.25c-.13.73-.05,1.22.22,1.47.28.26.71.38,1.31.38h2.56l-.54,2.5h-3.11Z"/><path class="cls-2" d="m190,53.87c-1.65,0-3.12-.31-4.44-.95-1.31-.63-2.32-1.53-3.03-2.71s-1.04-2.54-.99-4.1c.06-1.86.55-3.52,1.47-5,.92-1.47,2.14-2.62,3.67-3.43,1.53-.81,3.27-1.22,5.24-1.22s3.6.38,4.92,1.15c1.31.77,2.25,1.84,2.82,3.2.57,1.37.65,2.99.24,4.87h-15.44c-.15,1.17,0,2.22.45,3.14.45.92,1.14,1.63,2.07,2.15.93.51,2.04.77,3.35.77,1.52,0,2.84-.3,3.97-.91,1.13-.61,1.91-1.42,2.34-2.42h2.76c-.32,1.09-.91,2.05-1.78,2.88-.87.83-1.94,1.47-3.24,1.92s-2.75.66-4.37.64Zm-5.35-9.71l-.35-.29h13.33l-.29.32c.17-1.13.05-2.13-.37-2.98-.42-.85-1.06-1.51-1.94-1.97-.88-.46-1.96-.69-3.24-.69s-2.36.24-3.35.71-1.82,1.12-2.47,1.94c-.65.82-1.09,1.81-1.33,2.96Z"/><path class="cls-2" d="m201.34,53.58l3.52-16.82h2.56l-.51,3.11h.1c.55-1,1.34-1.81,2.35-2.42s2.1-.91,3.25-.91c.32,0,.62.02.9.05s.49.08.64.14l-.54,2.59c-.21-.08-.46-.14-.75-.18-.29-.03-.59-.05-.91-.05-.83,0-1.64.18-2.43.54-.79.36-1.47.89-2.04,1.59-.57.69-.99,1.56-1.27,2.61l-2.02,9.74h-2.85Z"/><path class="cls-2" d="m213.1,53.58l3.49-16.82h2.85l-3.52,16.82h-2.82Zm4.1-19.61l.74-3.75h2.85l-.77,3.75h-2.82Z"/><path class="cls-2" d="m228.03,53.9c-1.11,0-2.13-.18-3.06-.54-.93-.36-1.72-.88-2.37-1.55-.65-.67-1.15-1.47-1.49-2.4-.34-.93-.49-1.98-.45-3.16.08-1.9.55-3.59,1.39-5.08.84-1.48,1.98-2.64,3.4-3.46,1.42-.82,3.03-1.23,4.82-1.23,1.15,0,2.2.19,3.14.56.94.37,1.73.89,2.37,1.54.64.65,1.05,1.44,1.22,2.36h.13l1.09-4.17h2.59l-3.49,16.82h-2.72l.54-2.98h-.13c-.71.98-1.66,1.78-2.87,2.39s-2.58.91-4.12.91Zm.99-2.27c1.22,0,2.31-.22,3.28-.66.97-.44,1.78-1.06,2.44-1.86.65-.8,1.07-1.71,1.27-2.74l.16-.9c.26-1.3.21-2.46-.14-3.48s-.98-1.8-1.89-2.37c-.91-.57-2.06-.85-3.44-.85-1.32-.02-2.51.28-3.57.91s-1.91,1.5-2.55,2.61c-.64,1.11-.99,2.38-1.06,3.81-.02,1.13.19,2.11.62,2.93.44.82,1.08,1.46,1.92,1.91.84.45,1.83.67,2.96.67Z"/></g></g></svg>